# xmcd
#
# Track frame offsets:
#	150
#	11857
#	23511
#	35987
#	47424
#	58399
#	69020
#	81043
#	93569
#	106599
#	121306
#	135689
#	151047
#	164864
#	177133
#	191471
#	204608
#	218126
#	236044
#	249745
#	265462
#	278426
#	293187
#
# Disc length: 4071 seconds
#
# Revision: 0
# Processed by: cddbd v1.5.2PL0 Copyright (c) Steve Scherf et al.
# Submitted via: audiograbber 1.83.01
#
DISCID=480fe517
DTITLE=Johnny Duncan - Thinkin' Of A Rendezvous: Columbia Country Hits
DYEAR=1900
DGENRE=Country
TTITLE0=Jackson Ain't A Very Big Town (with June Sterns)
TTITLE1=When She Touches Me
TTITLE2=You're Gonna Need A Man
TTITLE3=Let Me Go (Set Me Free)
TTITLE4=There's Something About A Lady
TTITLE5=Baby's Smile, Woman's Kiss
TTITLE6=Fools
TTITLE7=Sweet Country Woman
TTITLE8=Talking With My Lady
TTITLE9=Jo And The Cowboy (with Janie Fricke)
TTITLE10=Stranger (with Janie Fricke)
TTITLE11=Thinkin' Of A Rendezvou (with Janie Fricke)
TTITLE12=It Couldn't Have Been Any Better (with Janie Fricke)
TTITLE13=A Song In The Night
TTITLE14=Come A Little Bit Closer (with Janie Fricke)
TTITLE15=She Can Put Her Shoes Under My Bed (Anytime)
TTITLE16=Hello Mexico (And Adios Baby To You)
TTITLE17=Slow Dancing
TTITLE18=The Lady In The Blue Mercedes
TTITLE19=Play Another Slow Song
TTITLE20=I'm Gonna Love You Tonight (In My Dreams)
TTITLE21=He's Out Of My Life (with Janie Fricke)
TTITLE22=Acapulco
EXTD=
EXTT0=
EXTT1=
EXTT2=
EXTT3=
EXTT4=
EXTT5=
EXTT6=
EXTT7=
EXTT8=
EXTT9=
EXTT10=
EXTT11=
EXTT12=
EXTT13=
EXTT14=
EXTT15=
EXTT16=
EXTT17=
EXTT18=
EXTT19=
EXTT20=
EXTT21=
EXTT22=
PLAYORDER=
